<?xml version="1.0" encoding="UTF-8" standalone="no"?>
<!-- Created with Inkscape (http://www.inkscape.org/) -->

<svg
   xmlns:i="http://ns.adobe.com/AdobeIllustrator/10.0/"
   xmlns:dc="http://purl.org/dc/elements/1.1/"
   xmlns:cc="http://creativecommons.org/ns#"
   xmlns:rdf="http://www.w3.org/1999/02/22-rdf-syntax-ns#"
   xmlns:svg="http://www.w3.org/2000/svg"
   xmlns="http://www.w3.org/2000/svg"
   xmlns:sodipodi="http://sodipodi.sourceforge.net/DTD/sodipodi-0.dtd"
   xmlns:inkscape="http://www.inkscape.org/namespaces/inkscape"
   width="57.363842"
   height="57.365078"
   id="svg2975"
   version="1.1"
   inkscape:version="0.48.3.1 r9886"
   sodipodi:docname="other.svg">
  <defs
     id="defs2977">
    <inkscape:perspective
       sodipodi:type="inkscape:persp3d"
       inkscape:vp_x="0 : 526.18109 : 1"
       inkscape:vp_y="0 : 1000 : 0"
       inkscape:vp_z="744.09448 : 526.18109 : 1"
       inkscape:persp3d-origin="372.04724 : 350.78739 : 1"
       id="perspective2983" />
    <inkscape:perspective
       id="perspective2932"
       inkscape:persp3d-origin="0.5 : 0.33333333 : 1"
       inkscape:vp_z="1 : 0.5 : 1"
       inkscape:vp_y="0 : 1000 : 0"
       inkscape:vp_x="0 : 0.5 : 1"
       sodipodi:type="inkscape:persp3d" />
    <inkscape:perspective
       id="perspective3002"
       inkscape:persp3d-origin="0.5 : 0.33333333 : 1"
       inkscape:vp_z="1 : 0.5 : 1"
       inkscape:vp_y="0 : 1000 : 0"
       inkscape:vp_x="0 : 0.5 : 1"
       sodipodi:type="inkscape:persp3d" />
  </defs>
  <sodipodi:namedview
     id="base"
     pagecolor="#ffffff"
     bordercolor="#666666"
     borderopacity="1.0"
     inkscape:pageopacity="0.0"
     inkscape:pageshadow="2"
     inkscape:zoom="0.35"
     inkscape:cx="-36.318084"
     inkscape:cy="5.8253946"
     inkscape:document-units="px"
     inkscape:current-layer="layer1"
     showgrid="false"
     inkscape:window-width="575"
     inkscape:window-height="481"
     inkscape:window-x="65"
     inkscape:window-y="268"
     inkscape:window-maximized="0" />
  <metadata
     id="metadata2980">
    <rdf:RDF>
      <cc:Work
         rdf:about="">
        <dc:format>image/svg+xml</dc:format>
        <dc:type
           rdf:resource="http://purl.org/dc/dcmitype/StillImage" />
        <dc:title />
      </cc:Work>
    </rdf:RDF>
  </metadata>
  <g
     inkscape:label="Layer 1"
     inkscape:groupmode="layer"
     id="layer1"
     transform="translate(-411.31808,-480.8225)">
    <g
       transform="translate(204.96163,125.56671)"
       id="g2967"
       style="fill:#980101">
      <path
         transform="matrix(6.1496814,1.0832945,-1.0832945,6.1496814,-872.40094,-2216.5526)"
         style="fill:#980101;fill-opacity:1;fill-rule:nonzero;stroke:none;stroke-width:0.16789961000000000;marker:none;visibility:visible;display:block;overflow:visible;enable-background:accumulate"
         d="m 248.32624,374.98237 c -0.21424,0.28354 -0.37679,0.77369 -0.73038,0.70766 -0.35421,-0.0661 -0.32695,-0.58333 -0.42502,-0.92508 -0.2127,-0.0123 -0.42352,-0.009 -0.63202,0.008 -0.0902,0.34394 -0.0507,0.8599 -0.40341,0.93437 -0.35284,0.0745 -0.52563,-0.41371 -0.74725,-0.69179 -0.19935,0.0698 -0.39318,0.1548 -0.58047,0.25075 0.049,0.35199 0.28074,0.81228 -0.016,1.01562 -0.29712,0.20359 -0.64303,-0.17898 -0.95391,-0.35139 -0.157,0.13982 -0.30574,0.28916 -0.44308,0.45017 0.17914,0.30725 0.57327,0.64458 0.37629,0.94697 -0.19658,0.3018 -0.66407,0.0806 -1.01725,0.0403 -0.0904,0.18773 -0.1689,0.38361 -0.23422,0.58656 0.28351,0.21426 0.77368,0.3768 0.70764,0.7304 -0.0662,0.35421 -0.58334,0.32695 -0.92508,0.42503 -0.0123,0.2127 -0.009,0.42353 0.008,0.63204 0.34395,0.0902 0.85988,0.0506 0.93435,0.4034 0.0745,0.35283 -0.41371,0.52565 -0.69179,0.74726 0.0699,0.19936 0.15479,0.39319 0.25075,0.58047 0.35198,-0.049 0.81226,-0.28074 1.01559,0.016 0.20359,0.29709 -0.17896,0.64302 -0.35138,0.95389 0.13981,0.15703 0.28914,0.30578 0.45017,0.44311 0.30723,-0.17916 0.64457,-0.57329 0.94695,-0.3763 0.30177,0.19657 0.0806,0.66406 0.0402,1.01726 0.18774,0.0904 0.38359,0.16891 0.58657,0.23423 0.21423,-0.28354 0.37677,-0.77371 0.73037,-0.70767 0.35422,0.0662 0.32696,0.58334 0.42501,0.92509 0.2127,0.0123 0.42353,0.009 0.63203,-0.008 0.0902,-0.34394 0.0507,-0.85991 0.40342,-0.93437 0.35282,-0.0745 0.52563,0.41371 0.74725,0.69179 0.19935,-0.0698 0.39317,-0.1548 0.58046,-0.25075 -0.049,-0.35199 -0.28073,-0.81228 0.016,-1.01561 0.29711,-0.2036 0.64301,0.17897 0.95388,0.35137 0.15703,-0.1398 0.30576,-0.28914 0.44309,-0.45016 -0.17914,-0.30724 -0.57326,-0.64457 -0.37628,-0.94698 0.19657,-0.30179 0.66406,-0.0806 1.01724,-0.0403 0.0904,-0.18774 0.1689,-0.38361 0.23424,-0.58657 -0.28353,-0.21426 -0.77369,-0.37678 -0.70766,-0.73039 0.0662,-0.35422 0.58333,-0.32696 0.92507,-0.42503 0.0123,-0.2127 0.009,-0.42354 -0.008,-0.63204 -0.34396,-0.0902 -0.8599,-0.0507 -0.93437,-0.40342 -0.0745,-0.35282 0.41371,-0.52564 0.69179,-0.74725 -0.0699,-0.19937 -0.15478,-0.39321 -0.25075,-0.58047 -0.35199,0.049 -0.81227,0.28074 -1.01559,-0.016 -0.20359,-0.29711 0.17897,-0.64304 0.35139,-0.9539 -0.13982,-0.15702 -0.28915,-0.30578 -0.45016,-0.44311 -0.30724,0.17916 -0.64457,0.57329 -0.94697,0.3763 -0.30178,-0.19656 -0.0806,-0.66407 -0.0402,-1.01727 -0.18772,-0.0904 -0.38359,-0.1689 -0.58656,-0.23422 z m -1.3059,1.15793 c 1.89387,0.14571 3.64377,2.01625 3.11975,3.61395 -0.48238,1.47074 -2.10749,3.543 -3.61392,3.18757 -1.50643,-0.35542 -3.33967,-2.514 -2.98425,-4.02046 0.35542,-1.50646 1.97199,-3.13649 3.47842,-2.78106 z"
         id="path3648"
         sodipodi:nodetypes="csccsccsccsccsccsccsccsccsccsccsccsccsccsccsccscccsssc" />
      <g
         transform="matrix(0.1536317,0.02706292,-0.02706292,0.1536317,212.74448,374.24476)"
         id="g2756"
         style="overflow:visible;fill:#980101">
        <g
           id="Background"
           i:layer="yes"
           i:dimmedPercent="100"
           i:rgbTrio="#4F008000FFFF"
           transform="translate(-3.9356364,-120.10454)"
           style="fill:#980101" />
        <g
           id="Guides"
           i:layer="yes"
           i:dimmedPercent="100"
           i:rgbTrio="#4F008000FFFF"
           transform="translate(-3.9356364,-120.10454)"
           style="fill:#980101" />
        <g
           id="g47"
           transform="matrix(4.7881057,0,0,4.7814576,1.07065e-6,-155.7423)"
           style="fill:#980101">
          <path
             i:knockout="Off"
             clip-rule="evenodd"
             d="M 31.602,8.495 C 22.92,8.495 15.28,11.708 9.376,17.698 3.299,23.863 0,31.85 0,40.185 c 0,8.421 3.212,16.235 9.29,22.313 6.077,6.077 13.978,9.376 22.312,9.376 8.334,0 16.409,-3.299 22.66,-9.463 5.904,-5.817 9.029,-13.544 9.029,-22.226 0,-8.595 -3.125,-16.409 -9.116,-22.4 -6.077,-6.077 -13.891,-9.29 -22.573,-9.29 z m 0.087,5.731 c 7.119,0 13.457,2.691 18.406,7.64 4.861,4.862 7.466,11.287 7.466,18.319 0,7.119 -2.518,13.37 -7.38,18.146 -5.123,5.035 -11.721,7.727 -18.493,7.727 -6.859,0 -13.284,-2.691 -18.232,-7.64 -4.949,-4.95 -7.727,-11.461 -7.727,-18.233 0,-6.859 2.778,-13.37 7.727,-18.406 4.862,-4.948 11.114,-7.553 18.233,-7.553 z"
             id="path49"
             style="fill-rule:evenodd;fill:#980101" />
        </g>
      </g>
    </g>
  </g>
</svg>
