<svg height='100px' width='100px'  fill="#ffffff" xmlns:dc="http://purl.org/dc/elements/1.1/" xmlns:cc="http://creativecommons.org/ns#" xmlns:rdf="http://www.w3.org/1999/02/22-rdf-syntax-ns#" xmlns:svg="http://www.w3.org/2000/svg" xmlns="http://www.w3.org/2000/svg" xmlns:sodipodi="http://sodipodi.sourceforge.net/DTD/sodipodi-0.dtd" xmlns:inkscape="http://www.inkscape.org/namespaces/inkscape" version="1.1" x="0px" y="0px" viewBox="0 0 100 100"><g transform="translate(0,-952.36218)"><path style="text-indent:0;text-transform:none;direction:ltr;block-progression:tb;baseline-shift:baseline;color:#000000;enable-background:accumulate;" d="m 15.031252,975.36218 c -2.34829,0 -4.4595,0.591 -5.9375005,2.0624 -1.478,1.4716 -2.09375,3.604 -2.09375,5.9376 l 0,38.00002 c 0,2.3301 0.60767,4.4362 2.09375,5.9062 1.4860805,1.47 3.6331905,2.0938 6.0000005,2.0938 l 69.937499,0 c 2.31698,0 4.44216,-0.6389 5.90625,-2.125 1.464088,-1.4864 2.062497,-3.6016 2.062497,-5.9688 l 0,-38.00002 c 0,-2.2968 -0.6065,-4.3885 -2.062497,-5.8438 -1.456,-1.455 -3.54507,-2.0624 -5.84375,-2.0624 z m 71.593749,4.1562 -34.593749,28.03122 c -1.47139,0.7201 -2.59111,0.7201 -4.0625,0 l -34.5625,-28.00002 c 23.59375,-0.169 53.593749,-0.169 73.218749,-0.0312 z m -75.593749,3.2188 24.03125,19.50002 -23.96875,20.4062 c -0.0987,-13.8908 -0.0937,-27.26281 -0.0625,-39.90622 z m 77.937499,0 c 0.0312,13.64341 0.0312,27.64342 -0.0938,39.90622 l -23.9375,-20.4062 z m -50.718749,22.06242 c 2.60034,2.0957 5.24788,4.3023 7.84375,6.3438 2.47705,1.2385 5.33545,1.2385 7.8125,0 2.61551,-2.0455 5.241879,-4.2298 7.84375,-6.3438 l 24.093749,20.5313 c -23.843749,0.05 -50.1058,4e-4 -71.687499,-0.031 z" fill="#ffffff" fill-opacity="1" stroke="none" marker="none" visibility="visible" display="inline" overflow="visible"></path></g></svg>