<?xml version="1.0" encoding="utf-8"?>
<!-- Generator: Adobe Illustrator 16.0.3, SVG Export Plug-In . SVG Version: 6.00 Build 0)  -->
<!DOCTYPE svg PUBLIC "-//W3C//DTD SVG 1.1//EN" "http://www.w3.org/Graphics/SVG/1.1/DTD/svg11.dtd">
<svg version="1.1" id="Vrstva_1" xmlns="http://www.w3.org/2000/svg" xmlns:xlink="http://www.w3.org/1999/xlink" x="0px" y="0px"
	 width="595.28px" height="841.89px" viewBox="0 0 595.28 841.89" style="enable-background:new 0 0 595.28 841.89;"
	 xml:space="preserve">
<style type="text/css">
<![CDATA[
	.st0{fill:#FFFFFF;}
	.st1{fill:#0062A3;}
]]>
</style>
<path class="st1" d="M544.89,434.18c0,13.26-10.75,24.01-24.01,24.01c-13.26,0-24.01-10.74-24.01-24.01
	c0-13.26,10.75-24.01,24.01-24.01C534.14,410.17,544.89,420.92,544.89,434.18z"/>
<path class="st1" d="M119.75,434.18c0,13.26-10.75,24.01-24.01,24.01c-13.26,0-24.01-10.74-24.01-24.01
	c0-13.26,10.75-24.01,24.01-24.01C109,410.17,119.75,420.92,119.75,434.18z"/>
<path class="st1" d="M341.72,467.65c0,11-8.92,19.92-19.92,19.92s-19.92-8.92-19.92-19.92c0-11.01,8.92-19.92,19.92-19.92
	S341.72,456.64,341.72,467.65z"/>
<path class="st1" d="M401.69,347.07c0,13.77-11.16,24.93-24.93,24.93c-13.77,0-24.93-11.16-24.93-24.93
	c0-13.77,11.16-24.93,24.93-24.93C390.53,322.14,401.69,333.3,401.69,347.07z"/>
<path class="st1" d="M275.29,394.42c0,41.24-33.43,74.67-74.67,74.67s-74.67-33.43-74.67-74.67c0-41.24,33.43-74.67,74.67-74.67
	S275.29,353.18,275.29,394.42z"/>
<path d="M275.88,423.52c0,1.95,1.04,3.11,2.72,3.11h20.23c2.33,0,4.93-0.39,6.35-1.43v16.99H274.2c-12.32,0-16.47-7.13-16.47-17.12
	v-30.6c0-10.11,4.28-17.12,16.6-17.12h14.65c12.06,0,16.6,7,16.6,17.12v19.84h-29.69V423.52z M288.59,401.09v-4.93
	c0-2.33-0.91-3.5-2.98-3.5h-7c-1.81,0-2.72,1.17-2.72,3.5v4.93H288.59z"/>
<path d="M360.7,442.19h-18.15v-45.51c0-2.33-0.65-3.37-2.72-3.37h-8.95v74.34h-18.15v-90.29h31.51c12.06,0,16.47,7,16.47,17.24
	V442.19z"/>
<path d="M389.89,426.12h5.32c2.33,0,4.93-0.39,6.48-1.43v17.51h-17.12c-12.06,0-16.47-7.13-16.47-17.12v-75.24l18.15-8.95v36.47
	h15.43v15.95h-15.43v28.79C386.26,424.82,387.3,426.12,389.89,426.12z"/>
<path d="M435.03,401.09v-4.8c0-2.33-0.65-3.37-2.85-3.37h-17.64c-2.33,0-4.92,0.39-6.48,1.43v-16.99h28.66
	c12.19,0,16.6,7,16.6,17.12v47.72h-31.51c-12.06,0-16.6-7-16.6-17.25v-6.87c0-9.99,4.41-16.99,16.6-16.99H435.03z M423.49,417.69
	V423c0,2.46,0.78,3.63,2.98,3.63h8.56v-12.45h-8.43C424.27,414.19,423.49,415.48,423.49,417.69z"/>
<path d="M520.88,442.19h-43.68c-12.06,0-16.47-7.13-16.47-17.12v-58.61l18.15-8.95v19.84h15.43v15.95h-15.43v28.79
	c0,2.72,1.04,4.02,3.63,4.02h38.37"/>
<path class="st0" d="M217.49,351.43l-9.47,51.09l-9.47-51.09h-29.05l0,70.67c0,2.72-1.04,4.02-3.63,4.02H91.52l8.95,16.08h70.72
	c12.06,0,16.47-7.13,16.47-17.12v-51.22l9.85,49.27h19.84l9.85-49.27v68.33h17.89v-90.77H217.49z"/>
</svg>
