<?xml version="1.0" encoding="UTF-8"?>
<svg width="16px" height="13px" viewBox="0 0 16 13" version="1.1" xmlns="http://www.w3.org/2000/svg" xmlns:xlink="http://www.w3.org/1999/xlink">
    <!-- Generator: Sketch 47.1 (45422) - http://www.bohemiancoding.com/sketch -->
    <title>Group</title>
    <desc>Created with Sketch.</desc>
    <defs></defs>
    <g id="CCPD" stroke="none" stroke-width="1" fill="none" fill-rule="evenodd">
        <g id="procedimento" transform="translate(-325.000000, -349.000000)" fill="#000000">
            <g id="breadcrumbs" transform="translate(18.000000, 325.000000)">
                <g id="Group" transform="translate(307.000000, 24.000000)">
                    <path d="M15.5806061,6.67114815 L0.242424242,6.67114815 C0.108606061,6.67114815 0,6.55914815 0,6.42114815 C0,6.28314815 0.108606061,6.17114815 0.242424242,6.17114815 L15.5806061,6.17114815 C15.7144242,6.17114815 15.8230303,6.28314815 15.8230303,6.42114815 C15.8230303,6.55914815 15.7144242,6.67114815 15.5806061,6.67114815 L15.5806061,6.67114815 Z" id="Shape"></path>
                    <path d="M9.50206061,12.6884815 C9.44,12.6884815 9.37793939,12.6648889 9.33042424,12.6181852 C9.23587879,12.5242963 9.23587879,12.3716667 9.33042424,12.2777778 L15.2378182,6.41140741 L9.33042424,0.546962963 C9.23587879,0.453074074 9.23587879,0.300444444 9.33042424,0.206555556 C9.4249697,0.112666667 9.57866667,0.112666667 9.67321212,0.206555556 L15.7517576,6.24096296 C15.7973333,6.28622222 15.8225455,6.34737037 15.8225455,6.41140741 C15.8225455,6.47544444 15.7968485,6.53659259 15.7517576,6.58185185 L9.67321212,12.6177037 C9.62618182,12.6648889 9.56412121,12.6884815 9.50206061,12.6884815 L9.50206061,12.6884815 Z" id="Shape"></path>
                </g>
            </g>
        </g>
    </g>
</svg>