<?xml version="1.0" encoding="utf-8"?>
<!-- Generator: Adobe Illustrator 16.0.3, SVG Export Plug-In . SVG Version: 6.00 Build 0)  -->
<!DOCTYPE svg PUBLIC "-//W3C//DTD SVG 1.1//EN" "http://www.w3.org/Graphics/SVG/1.1/DTD/svg11.dtd">
<svg version="1.1" id="Vrstva_1" xmlns="http://www.w3.org/2000/svg" xmlns:xlink="http://www.w3.org/1999/xlink" x="0px" y="0px"
	 width="595.28px" height="841.89px" viewBox="0 0 595.28 841.89" style="enable-background:new 0 0 595.28 841.89;"
	 xml:space="preserve">
<style type="text/css">
<![CDATA[
	.st0{fill:#FFFFFF;}
	.st1{fill:#0062A3;}
]]>
</style>
<path class="st1" d="M227.09,415.88c0,13.77-11.16,24.92-24.93,24.92c-13.77,0-24.93-11.15-24.93-24.92
	c0-13.77,11.16-24.93,24.93-24.93C215.93,390.95,227.09,402.11,227.09,415.88z"/>
<path class="st1" d="M388.56,374.6c0,42.82-34.71,77.53-77.52,77.53s-77.53-34.71-77.53-77.53c0-42.81,34.71-77.52,77.53-77.52
	S388.56,331.79,388.56,374.6z"/>
<path class="st0" d="M328.55,329.97l-9.83,53.04l-9.83-53.04h-30.16l0,73.37c0,2.83-1.08,4.17-3.77,4.17h-77.2l9.29,16.69h73.43
	c12.52,0,17.1-7.4,17.1-17.77v-53.17l10.23,51.16h20.6l10.23-51.16v70.94h18.58v-94.23H328.55z"/>
</svg>
