<?xml version="1.0" encoding="UTF-8" standalone="no"?>
<!DOCTYPE svg PUBLIC "-//W3C//DTD SVG 1.1//EN" "http://www.w3.org/Graphics/SVG/1.1/DTD/svg11.dtd">
<!-- Generiert durch Microsoft Visio, SVG Export Tutorial.svg Zeichenblatt-1 -->
<svg xmlns="http://www.w3.org/2000/svg" xmlns:xlink="http://www.w3.org/1999/xlink" xmlns:ev="http://www.w3.org/2001/xml-events"
		xmlns:v="http://schemas.microsoft.com/visio/2003/SVGExtensions/" width="1.7034in" height="1.23568in"
		viewBox="0 0 122.645 88.9687" xml:space="preserve" color-interpolation-filters="sRGB" class="st4">
	<v:documentProperties v:langID="1031" v:metric="true" v:viewMarkup="false"/>

	<style type="text/css">
	<![CDATA[
		.st1 {fill:#ffffff;stroke:none;stroke-linecap:butt;stroke-width:0.75}
		.st2 {fill:none;stroke:none;stroke-linecap:round;stroke-linejoin:round;stroke-width:0.75}
		.st3 {fill:#ffffff;font-family:Trebuchet MS;font-size:4.00001em;font-weight:bold}
		.st4 {fill:none;fill-rule:evenodd;font-size:12px;overflow:visible;stroke-linecap:square;stroke-miterlimit:3}
	]]>
	</style>

	<g v:mID="0" v:index="1" v:groupContext="foregroundPage">
		<title>Zeichenblatt-1</title>
		<v:pageProperties v:drawingScale="0.0393701" v:pageScale="0.0393701" v:drawingUnits="24" v:shadowOffsetX="8.50394"
				v:shadowOffsetY="-8.50394"/>
		<g id="group56-1" transform="translate(0.75,-0.75)" v:mID="56" v:groupContext="group">
			<title>Tabelle.56</title>
			<g id="group46-2" v:mID="46" v:groupContext="group">
				<title>Tabelle.46</title>
				<g id="group47-3" v:mID="47" v:groupContext="group">
					<title>Tabelle.47</title>
					<g id="shape48-4" v:mID="48" v:groupContext="shape">
						<title>Tabelle.48</title>
						<path d="M118.27 1.5 L83.73 1.5 C72.28 1.5 64.33 8.92 60.57 13.39 C56.82 8.92 48.87 1.5 37.41 1.5 L2.87 1.5
									 C1.29 1.5 0 2.79 0 4.37 L0 43.82 C0 45.4 1.29 46.69 2.87 46.69 C4.46 46.69 5.75 45.4 5.75 43.82
									 L5.75 7.25 L37.41 7.25 C48.52 7.25 55.9 16.54 57.7 19.07 L57.7 77.51 C52.03 72.89 42.66 69.67
									 29.67 67.9 C19.75 66.56 10.37 66.42 5.75 66.46 L5.75 57.43 C5.75 55.85 4.46 54.56 2.87 54.56
									 C1.29 54.56 0 55.85 0 57.43 L0 69.39 L0 86.1 C0 87.68 1.29 88.97 2.87 88.97 L60.57 88.97 C60.57
									 88.97 60.57 88.97 60.57 88.97 C60.57 88.97 60.57 88.97 60.57 88.97 C60.57 88.97 60.57 88.97
									 60.57 88.97 C60.58 88.97 60.58 88.97 60.58 88.97 L118.27 88.97 C119.86 88.97 121.14 87.68 121.14
									 86.1 L121.14 69.39 L121.14 4.37 C121.14 2.79 119.86 1.5 118.27 1.5 ZM83.73 7.25 L115.4 7.25
									 L115.4 66.46 C115.04 66.46 114.65 66.46 114.23 66.46 C107.95 66.46 95.7 66.8 84.27 69.11 C74.97
									 70.98 68.01 73.8 63.45 77.52 L63.45 19.06 C65.24 16.53 72.56 7.25 83.73 7.25 ZM5.75 72.21 C10.19
									 72.18 19.38 72.3 28.9 73.6 C41.89 75.36 51.03 78.71 55.4 83.22 L5.75 83.22 L5.75 72.21 ZM65.7
									 83.22 C73.38 75.18 94.9 72.2 114.23 72.2 C114.65 72.2 115.04 72.2 115.4 72.21 L115.4 83.22 L65.7
									 83.22 L65.7 83.22 Z" class="st1"/>
					</g>
					<g id="shape52-6" v:mID="52" v:groupContext="shape" transform="translate(15.4404,-66.0794)">
						<title>Tabelle.52</title>
						<path d="M2.87 88.97 L23.19 88.97 C24.78 88.97 26.06 87.68 26.06 86.1 C26.06 84.51 24.78 83.22 23.19 83.22
									 L2.87 83.22 C1.29 83.22 0 84.51 0 86.1 C0 87.68 1.29 88.97 2.87 88.97 Z" class="st1"/>
					</g>
					<g id="shape53-8" v:mID="53" v:groupContext="shape" transform="translate(15.4404,-48.8104)">
						<title>Tabelle.53</title>
						<path d="M2.87 88.97 L23.19 88.97 C24.78 88.97 26.06 87.68 26.06 86.1 C26.06 84.51 24.78 83.22 23.19 83.22
									 L2.87 83.22 C1.29 83.22 0 84.51 0 86.1 C0 87.68 1.29 88.97 2.87 88.97 Z" class="st1"/>
					</g>
					<g id="shape54-10" v:mID="54" v:groupContext="shape" transform="translate(15.4404,-31.5409)">
						<title>Tabelle.54</title>
						<path d="M2.87 88.97 L23.19 88.97 C24.78 88.97 26.06 87.68 26.06 86.1 C26.06 84.51 24.78 83.22 23.19 83.22
									 L2.87 83.22 C1.29 83.22 0 84.51 0 86.1 C0 87.68 1.29 88.97 2.87 88.97 Z" class="st1"/>
					</g>
				</g>
			</g>
			<g id="shape55-12" v:mID="55" v:groupContext="shape" transform="translate(77.9528,-13.8185)">
				<title>Tabelle.55</title>
				<desc>i</desc>
				<v:textBlock v:margins="rect(4,4,4,4)" v:tabSpace="42.5197"/>
				<v:textRect cx="13.8628" cy="54.4255" width="27.73" height="69.0864"/>
				<rect x="0" y="19.8823" width="27.7257" height="69.0864" class="st2"/>
				<text x="6.7" y="68.83" class="st3" v:langID="1031"><v:paragraph v:horizAlign="1"/><v:tabList/>i</text>			</g>
		</g>
	</g>
</svg>
