<?xml version="1.0" encoding="UTF-8" standalone="no"?>
<svg
   xmlns:dc="http://purl.org/dc/elements/1.1/"
   xmlns:cc="http://creativecommons.org/ns#"
   xmlns:rdf="http://www.w3.org/1999/02/22-rdf-syntax-ns#"
   xmlns:svg="http://www.w3.org/2000/svg"
   xmlns="http://www.w3.org/2000/svg"
   xmlns:sodipodi="http://sodipodi.sourceforge.net/DTD/sodipodi-0.dtd"
   xmlns:inkscape="http://www.inkscape.org/namespaces/inkscape"
   version="1.0"
   width="142.10001mm"
   height="54.330002mm"
   id="svg2"
   inkscape:version="0.48.5 r10040"
   sodipodi:docname="VISTOMS_Label.svg">
  <metadata
     id="metadata16">
    <rdf:RDF>
      <cc:Work
         rdf:about="">
        <dc:format>image/svg+xml</dc:format>
        <dc:type
           rdf:resource="http://purl.org/dc/dcmitype/StillImage" />
        <dc:title />
      </cc:Work>
    </rdf:RDF>
  </metadata>
  <sodipodi:namedview
     pagecolor="#ffffff"
     bordercolor="#666666"
     borderopacity="1"
     objecttolerance="10"
     gridtolerance="10"
     guidetolerance="10"
     inkscape:pageopacity="0"
     inkscape:pageshadow="2"
     inkscape:window-width="1858"
     inkscape:window-height="1058"
     id="namedview14"
     showgrid="false"
     inkscape:zoom="1.9380331"
     inkscape:cx="247.47396"
     inkscape:cy="85.914946"
     inkscape:window-x="-8"
     inkscape:window-y="192"
     inkscape:window-maximized="1"
     inkscape:current-layer="svg2" />
  <defs
     id="defs4" />
  <g
     style="font-size:126.75886536px;font-style:normal;font-weight:normal;text-align:start;text-anchor:start;fill:#595959;font-family:Trebuchet MS"
     id="text8" />
  <g
     id="g3007">
    <path
       id="path2989"
       style="font-size:126.75886536000000000px;font-style:normal;font-weight:normal;text-align:start;text-anchor:start;fill:#595959;font-family:Trebuchet MS"
       d="m 40.417166,119.81629 -6.251292,0 -33.79411112,-91.912559 13.74046312,0 23.334029,66.783601 22.467514,-66.783601 13.307205,0 z" />
    <path
       id="path2991"
       style="font-size:126.75886536000000000px;font-style:normal;font-weight:normal;text-align:start;text-anchor:start;fill:#595959;font-family:Trebuchet MS"
       d="m 85.537875,118.57841 0,-90.674679 12.378795,0 0,90.674679 z" />
    <path
       id="path2993"
       style="font-size:126.75886536000000000px;font-style:normal;font-weight:normal;text-align:start;text-anchor:start;fill:#595959;font-family:Trebuchet MS"
       d="m 114.68994,114.43151 4.51826,-11.38849 c 2.3107,1.69178 5.18877,3.10503 8.63421,4.23974 3.44541,1.13473 6.52979,1.70209 9.25315,1.70208 4.8277,10e-6 8.70638,-1.32039 11.63607,-3.96121 2.9296,-2.6408 4.39443,-6.0037 4.39447,-10.088722 -4e-5,-3.05341 -0.81498,-5.890214 -2.44481,-8.510422 -1.62992,-2.620143 -5.72523,-5.477579 -12.28596,-8.572316 l -7.30348,-3.404168 c -6.18942,-2.888339 -10.51168,-6.313136 -12.96679,-10.274401 -2.45514,-3.961156 -3.6827,-8.726987 -3.68269,-14.297508 -1e-5,-6.767 2.39322,-12.378715 7.1797,-16.835162 4.78645,-4.456277 10.93458,-6.684458 18.4444,-6.68455 10.02679,9.2e-5 17.00017,1.629966 20.92017,4.889624 l -3.65175,10.769552 c -1.65055,-1.196539 -4.16757,-2.351892 -7.55106,-3.466062 -3.38358,-1.114011 -6.51954,-1.671056 -9.40789,-1.671138 -4.20882,8.2e-5 -7.52014,1.196698 -9.93398,3.589851 -2.41389,2.39331 -3.62082,5.467374 -3.6208,9.222203 -2e-5,2.310775 0.43324,4.415168 1.29977,6.313185 0.8665,1.898143 2.07343,3.486753 3.6208,4.765837 1.54733,1.279198 4.71423,3.074122 9.50073,5.384776 l 7.42727,3.527956 c 6.18936,2.929695 10.53225,6.426701 13.02869,10.491029 2.49633,4.064406 3.74453,9.232548 3.74458,15.504442 -5e-5,6.808354 -2.7337,12.585114 -8.20095,17.330314 -5.46734,4.74521 -12.78114,7.11781 -21.94141,7.11781 -8.04624,0 -14.91646,-1.89808 -20.6107,-5.69425 z" />
    <path
       id="path2995"
       style="font-size:126.75886536000000000px;font-style:normal;font-weight:normal;text-align:start;text-anchor:start;fill:#595959;font-family:Trebuchet MS"
       d="m 212.73,39.044647 0,79.533763 -12.3788,0 0,-79.533763 -28.84259,0 0,-11.140916 71.36376,0 0,11.140916 z" />
    <path
       id="path2997"
       style="font-size:126.75886536000000000px;font-style:normal;font-weight:normal;text-align:start;text-anchor:start;fill:#595959;font-family:Trebuchet MS"
       d="m 435.85778,118.57841 -10.76955,-58.242235 -19.80607,59.480115 -3.0947,0 -20.36312,-59.480115 -10.52198,58.242235 -11.75985,0 16.95895,-90.674679 5.63235,0 21.601,66.164661 19.92986,-66.164661 5.57046,0 18.38251,90.674679 z" />
    <path
       id="path2999"
       style="font-size:126.75886536000000000px;font-style:normal;font-weight:normal;text-align:start;text-anchor:start;fill:#595959;font-family:Trebuchet MS"
       d="m 453.37378,114.43151 4.51826,-11.38849 c 2.3107,1.69178 5.18876,3.10503 8.63421,4.23974 3.44541,1.13473 6.52979,1.70209 9.25315,1.70208 4.8277,10e-6 8.70638,-1.32039 11.63607,-3.96121 2.9296,-2.6408 4.39443,-6.0037 4.39447,-10.088722 -4e-5,-3.05341 -0.81498,-5.890214 -2.44481,-8.510422 -1.62992,-2.620143 -5.72523,-5.477579 -12.28596,-8.572316 l -7.30349,-3.404168 c -6.18941,-2.888339 -10.51167,-6.313136 -12.96679,-10.274401 -2.45513,-3.961156 -3.68269,-8.726987 -3.68269,-14.297508 0,-6.767 2.39323,-12.378715 7.1797,-16.835162 4.78646,-4.456277 10.93458,-6.684458 18.44441,-6.68455 10.02678,9.2e-5 17.00016,1.629966 20.92016,4.889624 l -3.65174,10.769552 c -1.65055,-1.196539 -4.16757,-2.351892 -7.55107,-3.466062 -3.38357,-1.114011 -6.51953,-1.671056 -9.40788,-1.671138 -4.20882,8.2e-5 -7.52014,1.196698 -9.93398,3.589851 -2.41389,2.39331 -3.62082,5.467374 -3.6208,9.222203 -2e-5,2.310775 0.43324,4.415168 1.29977,6.313185 0.8665,1.898143 2.07343,3.486753 3.6208,4.765837 1.54733,1.279198 4.71423,3.074122 9.50073,5.384776 l 7.42727,3.527956 c 6.18936,2.929695 10.53224,6.426701 13.02868,10.491029 2.49634,4.064406 3.74453,9.232548 3.74459,15.504442 -6e-5,6.808354 -2.7337,12.585114 -8.20095,17.330314 -5.46735,4.74521 -12.78114,7.11781 -21.94142,7.11781 -8.04623,0 -14.91646,-1.89808 -20.61069,-5.69425 z" />
    <path
       style="fill:none;stroke:#595959;stroke-width:9.01176262px;stroke-linecap:round;stroke-linejoin:round;stroke-opacity:1;stroke-dasharray:none"
       d="m 267.14727,53.032923 c 11.19043,-20.301224 36.83929,-27.62947 57.14053,-16.34001 20.30122,11.289461 27.62947,36.839295 16.34,57.140525 C 329.43737,114.13466 303.78851,121.4629 283.48729,110.27247 263.18606,98.983015 255.85782,73.334146 267.14727,53.032923"
       id="path10"
       inkscape:connector-curvature="0" />
    <path
       style="fill:#595959;fill-opacity:1;fill-rule:evenodd;stroke:none"
       d="m 244.56835,165.43238 15.05262,8.31856 24.85661,-52.78319 -8.31854,-4.5554 -31.59069,49.02003 z"
       id="path12"
       inkscape:connector-curvature="0" />
  </g>
</svg>
