<?xml version="1.0" encoding="UTF-8" standalone="no"?>
<svg
   xmlns:dc="http://purl.org/dc/elements/1.1/"
   xmlns:cc="http://creativecommons.org/ns#"
   xmlns:rdf="http://www.w3.org/1999/02/22-rdf-syntax-ns#"
   xmlns:svg="http://www.w3.org/2000/svg"
   xmlns="http://www.w3.org/2000/svg"
   xmlns:sodipodi="http://sodipodi.sourceforge.net/DTD/sodipodi-0.dtd"
   xmlns:inkscape="http://www.inkscape.org/namespaces/inkscape"
   enable-background="new 0 0 512 512"
   id="Layer_1"
   version="1.1"
   viewBox="0 0 512 512"
   xml:space="preserve"
   sodipodi:docname="twitter_blanc.svg"
   inkscape:version="0.92.4 (5da689c313, 2019-01-14)"><metadata
     id="metadata839"><rdf:RDF><cc:Work
         rdf:about=""><dc:format>image/svg+xml</dc:format><dc:type
           rdf:resource="http://purl.org/dc/dcmitype/StillImage" /><dc:title></dc:title></cc:Work></rdf:RDF></metadata><defs
     id="defs837" /><sodipodi:namedview
     pagecolor="#ffffff"
     bordercolor="#666666"
     borderopacity="1"
     objecttolerance="10"
     gridtolerance="10"
     guidetolerance="10"
     inkscape:pageopacity="0"
     inkscape:pageshadow="2"
     inkscape:window-width="1920"
     inkscape:window-height="1001"
     id="namedview835"
     showgrid="false"
     inkscape:zoom="1.578125"
     inkscape:cx="256"
     inkscape:cy="256"
     inkscape:window-x="-9"
     inkscape:window-y="-9"
     inkscape:window-maximized="1"
     inkscape:current-layer="Layer_1" /><g
     id="g832"><path
       d="M 258.8,507.2 C 120.4,507.8 6.6,392.6 9.9,251.9 13,118 123.9,7.2 261.9,8.7 398.7,10.1 511.8,124 508.1,264.8 504.6,398.2 394.6,507.8 258.8,507.2 Z m 219,-249.4 C 476.7,132.4 375.1,35.9 255.2,38 138.6,40 40.1,135.2 40.4,258.4 40.7,383.9 143.1,480.2 263,478 379.5,475.8 477,380.8 477.8,257.8 Z"
       id="path828"
       style="fill:#fdfdfd;fill-opacity:1"
       inkscape:connector-curvature="0" /><path
       d="m 99,230.2 c 10.3,2.9 20.3,5.8 30.4,8.6 0.3,-0.5 0.6,-1.1 0.9,-1.6 -20.1,-15.5 -31,-35.4 -30.5,-60.9 0.2,-13.2 4.1,-27.1 9.8,-34.2 39,45.3 87.9,70.9 147,74.7 0.5,-10.9 -0.1,-21.3 1.6,-31.3 7.3,-42.1 55.6,-68.6 95.4,-53 9.4,3.7 17.8,8.9 25.4,15.6 1.5,1.3 4.6,2.4 6.4,1.8 12.1,-4.1 24,-8.6 36,-13.1 1.7,-0.6 3.2,-1.6 5.8,-3 -5.5,16.9 -15.7,28.9 -28.8,39.4 4.1,-0.7 8.2,-1.3 12.2,-2.2 4.4,-1 8.7,-2.3 13,-3.7 4,-1.3 8,-2.8 13.1,-4.7 -9,13.5 -19.1,24.2 -30.9,33.3 -3.4,2.6 -4.7,5.1 -4.7,9.5 0.5,55.5 -18.3,103.8 -55.2,144.8 -28.8,32 -64.9,51.9 -107.3,60.1 -32.1,6.2 -63.9,5.6 -95.6,-2.7 -19.4,-5.1 -37.7,-13.1 -54.8,-23.6 -0.5,-0.3 -0.9,-0.8 -1.9,-1.7 38.9,3.3 73.5,-6.1 105.2,-29.9 -33.1,-3.2 -55,-19.6 -67.3,-50.5 10.7,0 20.5,0 30.3,0 0.1,-0.5 0.2,-1.1 0.3,-1.6 -20.6,-5.6 -36.5,-17.4 -46.9,-36.1 -6.1,-10.7 -8.8,-22.2 -8.9,-34 z"
       id="path830"
       inkscape:label="path830"
       style="fill:#fdfdfd;fill-opacity:1"
       inkscape:connector-curvature="0" /></g></svg>