<svg height='100px' width='100px'  fill="#FFFFFF" xmlns:x="http://ns.adobe.com/Extensibility/1.0/" xmlns:i="http://ns.adobe.com/AdobeIllustrator/10.0/" xmlns:graph="http://ns.adobe.com/Graphs/1.0/" xmlns="http://www.w3.org/2000/svg" xmlns:xlink="http://www.w3.org/1999/xlink" version="1.1" x="0px" y="0px" viewBox="0 0 100 100" style="enable-background:new 0 0 100 100;" xml:space="preserve"><g><g i:extraneous="self"><path d="M97.5,50C97.5,23.8,76.2,2.5,50,2.5S2.5,23.8,2.5,50c0,26.2,21.3,47.5,47.5,47.5S97.5,76.2,97.5,50z M47.3,76.6L30,59.3    c-0.7-0.7-1.1-1.7-1.1-2.7c0-1,0.4-1.9,1.1-2.7c1.5-1.5,3.9-1.5,5.3,0l10.9,10.9V26.1c0-2.1,1.7-3.8,3.8-3.8s3.8,1.7,3.8,3.8v38.7    l10.9-10.9c1.5-1.5,3.9-1.5,5.3,0c1.5,1.5,1.5,3.9,0,5.3L52.7,76.6C52,77.3,51,77.7,50,77.7S48,77.3,47.3,76.6z"></path></g></g></svg>