<svg height='100px' width='100px'  fill="#FFFFFF" xmlns="http://www.w3.org/2000/svg" xmlns:xlink="http://www.w3.org/1999/xlink" version="1.1" x="0px" y="0px" viewBox="0 0 125 125" style="enable-background:new 0 0 125 125;" xml:space="preserve"><path d="M62.5,19.5c-23.7,0-43,19.3-43,43s19.3,43,43,43s43-19.3,43-43C105.5,38.7,86.2,19.5,62.5,19.5z M85.8,50.4L57.6,78.8  c-0.6,0.5-1.4,0.8-2.2,0.8c-0.2,0-0.4,0-0.6-0.1c-0.8-0.2-1.4-0.6-1.9-1.2L39.2,64.6c-1.1-1.2-1.1-3.1,0.1-4.2  c1.2-1.1,2.9-1.1,4.1,0l12,12l26.2-26.2c1.2-1.1,3.1-1.1,4.2,0.1C86.9,47.5,86.9,49.2,85.8,50.4z"></path></svg>