<?xml version="1.0" encoding="UTF-8" standalone="no"?>
<svg
        xmlns:dc="http://purl.org/dc/elements/1.1/"
        xmlns:cc="http://creativecommons.org/ns#"
        xmlns:rdf="http://www.w3.org/1999/02/22-rdf-syntax-ns#"
        xmlns:svg="http://www.w3.org/2000/svg"
        xmlns="http://www.w3.org/2000/svg"
        xmlns:sodipodi="http://sodipodi.sourceforge.net/DTD/sodipodi-0.dtd"
        xmlns:inkscape="http://www.inkscape.org/namespaces/inkscape"
        enable-background="new 0 0 512 512"
        id="Layer_1"
        version="1.1"
        viewBox="0 0 286.80521 289.16586"
        xml:space="preserve"
        sodipodi:docname="whatsapp_sans contour.svg"
        inkscape:version="0.92.4 (5da689c313, 2019-01-14)"
        width="286.80521"
        height="289.16586"><metadata
     id="metadata4593"><rdf:RDF><cc:Work
         rdf:about=""><dc:format>image/svg+xml</dc:format><dc:type
        rdf:resource="http://purl.org/dc/dcmitype/StillImage"/><dc:title></dc:title></cc:Work></rdf:RDF></metadata>
    <defs
            id="defs4591"/>
    <sodipodi:namedview
            pagecolor="#ffffff"
            bordercolor="#666666"
            borderopacity="1"
            objecttolerance="10"
            gridtolerance="10"
            guidetolerance="10"
            inkscape:pageopacity="0"
            inkscape:pageshadow="2"
            inkscape:window-width="1920"
            inkscape:window-height="1001"
            id="namedview4589"
            showgrid="false"
            inkscape:zoom="0.4609375"
            inkscape:cx="145.5"
            inkscape:cy="147.3"
            inkscape:window-x="-9"
            inkscape:window-y="-9"
            inkscape:window-maximized="1"
            inkscape:current-layer="Layer_1"/>
    <g
            id="g4586"
            style="fill:black;fill-opacity:1"
            transform="translate(-110.5,-114.13414)"><path
       d="m 110.5,403.3 c 3.5,-10.6 6.8,-20.4 10,-30.1 4.5,-13.4 8.9,-26.8 13.6,-40.2 1.2,-3.4 1.1,-6.1 -0.7,-9.3 -46,-82.6 1.1,-186.5 93.4,-206.4 77.5,-16.7 153.9,34.4 168.2,112.5 13.5,74.2 -33.6,146 -107.1,162.8 -32.4,7.4 -63.9,3.7 -93.8,-11.2 -4,-2 -7.3,-2.5 -11.7,-1 -22.9,7.6 -45.9,14.8 -68.9,22.1 -0.7,0.2 -1.3,0.3 -3,0.8 z m 36.4,-35.8 c 14.3,-4.6 27.4,-8.7 40.5,-13.1 3,-1 5.4,-0.8 8.3,0.9 28.4,17.1 58.9,21.4 90.8,13.2 C 345.6,353.2 382.7,294 371.8,233.8 360.8,173 303.1,131 241.5,138.9 155.8,149.9 111,247 158.4,319.2 c 2.4,3.7 2.6,6.6 1.2,10.5 -4.3,12.2 -8.3,24.5 -12.7,37.8 z"
       id="path4582"
       inkscape:connector-curvature="0"
       style="fill:flack;fill-opacity:1" />
        <path
                d="m 186,222.2 c 0.2,-13.8 5.1,-24.1 14.4,-32.4 4.3,-3.8 15,-5.2 19.8,-2.3 1.7,1 3,3.2 3.7,5.1 3.6,9.3 7.2,18.6 10.3,28.1 0.7,2.3 0.1,5.7 -1.1,7.8 -2.3,3.8 -5.5,7.1 -8.6,10.3 -2.3,2.4 -2.8,4.6 -1.2,7.6 10.9,20.2 26.7,35 47.7,44.4 3.1,1.4 5.7,0.8 8,-1.9 3.5,-4.2 7.3,-8.2 10.8,-12.5 2.2,-2.8 4.8,-3.6 7.9,-2 9.7,5 19.6,9.9 29,15.5 1.7,1 2.8,4.8 2.6,7.2 -1.3,17.2 -13,24.5 -27.9,27.9 -6.9,1.6 -13.4,0.2 -20.1,-1.8 -41.5,-11.9 -68.9,-40 -88.6,-76.9 -4.2,-7.9 -6.6,-16.3 -6.7,-24.1 z"
                id="path4584"
                inkscape:connector-curvature="0"
                style="fill:black;fill-opacity:1"/></g></svg>